<svg xmlns="http://www.w3.org/2000/svg" xmlns:xlink="http://www.w3.org/1999/xlink" version="1.1" width="256" height="256" viewBox="0 0 256 256" xml:space="preserve">

<defs>
</defs>
<g style="stroke: none; stroke-width: 0; stroke-dasharray: none; stroke-linecap: butt; stroke-linejoin: miter; stroke-miterlimit: 10; fill: none; fill-rule: nonzero; opacity: 1;" transform="translate(1.4065934065934016 1.4065934065934016) scale(2.81 2.81)" >
	<path d="M 2.571 30 l 84.859 0 C 81.254 12.534 64.611 0.015 45.034 0 l -0.068 0 C 25.389 0.015 8.745 12.534 2.571 30 z" style="stroke: none; stroke-width: 1; stroke-dasharray: none; stroke-linecap: butt; stroke-linejoin: miter; stroke-miterlimit: 10; fill: rgb(0,196,255); fill-rule: nonzero; opacity: 1;" transform=" matrix(1 0 0 1 0 0) " stroke-linecap="round" />
	<path d="M 87.429 60 L 2.571 60 C 8.75 77.476 25.408 90 45 90 S 81.25 77.476 87.429 60 z" style="stroke: none; stroke-width: 1; stroke-dasharray: none; stroke-linecap: butt; stroke-linejoin: miter; stroke-miterlimit: 10; fill: rgb(0,196,255); fill-rule: nonzero; opacity: 1;" transform=" matrix(1 0 0 1 0 0) " stroke-linecap="round" />
	<path d="M 87.429 60 C 89.088 55.307 90 50.261 90 45 c 0 -5.261 -0.911 -10.307 -2.571 -15 L 2.571 30 C 0.911 34.693 0 39.739 0 45 c 0 5.261 0.912 10.308 2.571 15 L 87.429 60 z" style="stroke: none; stroke-width: 1; stroke-dasharray: none; stroke-linecap: butt; stroke-linejoin: miter; stroke-miterlimit: 10; fill: rgb(243,244,245); fill-rule: nonzero; opacity: 1;" transform=" matrix(1 0 0 1 0 0) " stroke-linecap="round" />
	<circle cx="44.998000000000005" cy="44.998000000000005" r="8.928" style="stroke: none; stroke-width: 1; stroke-dasharray: none; stroke-linecap: butt; stroke-linejoin: miter; stroke-miterlimit: 10; fill: rgb(246,180,14); fill-rule: nonzero; opacity: 1;" transform="  matrix(1 0 0 1 0 0) "/>
	<path d="M 67.172 44.591 c -0.128 -0.043 -0.25 -0.043 -0.256 -0.043 l -12.241 -0.461 c 0.535 -0.148 1.039 -0.333 1.535 -0.517 c 1.128 -0.419 2.192 -0.816 3.51 -0.697 c 2.031 0.182 3.414 -0.581 4.423 -1.138 c 0.36 -0.199 0.67 -0.37 0.938 -0.458 c 0.557 -0.183 0.978 -0.039 1.285 0.065 c 0.232 0.079 0.521 0.177 0.652 -0.094 c 0.038 -0.079 0.08 -0.243 -0.074 -0.453 c -0.289 -0.394 -1.13 -0.739 -2.29 -0.568 c -0.534 0.079 -0.936 0.266 -1.362 0.465 c -0.799 0.373 -1.705 0.797 -3.843 0.623 c -1.68 -0.135 -2.709 0.202 -3.706 0.529 c -0.572 0.187 -1.125 0.369 -1.782 0.448 l 11.456 -5.259 c 0.013 -0.005 0.125 -0.053 0.226 -0.14 c 0.166 -0.144 0.22 -0.328 0.147 -0.504 c -0.042 -0.102 -0.117 -0.178 -0.217 -0.219 c -0.213 -0.088 -0.473 0.014 -0.496 0.024 l -11.486 4.259 c 0.438 -0.342 0.833 -0.705 1.22 -1.065 c 0.882 -0.819 1.714 -1.593 2.976 -1.987 c 1.947 -0.609 2.931 -1.843 3.65 -2.744 c 0.256 -0.321 0.477 -0.598 0.691 -0.782 c 0.444 -0.382 0.888 -0.41 1.212 -0.431 c 0.245 -0.016 0.549 -0.035 0.566 -0.336 c 0.005 -0.088 -0.019 -0.255 -0.242 -0.39 c -0.417 -0.253 -1.326 -0.25 -2.333 0.352 c -0.463 0.277 -0.763 0.604 -1.08 0.951 c -0.596 0.651 -1.272 1.388 -3.312 2.047 c -1.603 0.517 -2.426 1.224 -3.222 1.907 c -0.456 0.392 -0.898 0.771 -1.475 1.096 l 8.572 -9.242 c 0.201 -0.201 0.318 -0.518 0.098 -0.739 c -0.078 -0.078 -0.176 -0.119 -0.284 -0.119 c -0.231 0 -0.432 0.194 -0.449 0.212 l -8.981 8.33 c 0.273 -0.483 0.5 -0.97 0.72 -1.451 c 0.501 -1.094 0.974 -2.128 1.988 -2.975 c 1.565 -1.307 2.003 -2.824 2.322 -3.931 c 0.114 -0.395 0.212 -0.736 0.34 -0.987 c 0.265 -0.523 0.663 -0.719 0.955 -0.862 c 0.22 -0.108 0.493 -0.243 0.395 -0.527 c -0.029 -0.083 -0.116 -0.228 -0.373 -0.268 c -0.481 -0.076 -1.321 0.275 -2.021 1.218 c -0.321 0.433 -0.473 0.85 -0.634 1.292 c -0.302 0.829 -0.644 1.769 -2.277 3.158 c -1.283 1.091 -1.773 2.059 -2.247 2.995 c -0.272 0.537 -0.535 1.056 -0.943 1.577 l 4.382 -11.819 c 0.109 -0.263 0.095 -0.6 -0.192 -0.719 c -0.102 -0.042 -0.208 -0.043 -0.308 -0.001 c -0.214 0.089 -0.325 0.345 -0.334 0.368 l -5.11 11.132 c 0.068 -0.551 0.09 -1.088 0.11 -1.615 c 0.044 -1.203 0.086 -2.339 0.699 -3.51 c 0.946 -1.807 0.77 -3.376 0.641 -4.521 c -0.046 -0.408 -0.086 -0.761 -0.064 -1.042 c 0.044 -0.584 0.338 -0.918 0.552 -1.162 c 0.162 -0.184 0.363 -0.413 0.163 -0.638 c -0.058 -0.066 -0.194 -0.167 -0.447 -0.105 c -0.474 0.116 -1.115 0.76 -1.401 1.899 c -0.132 0.523 -0.112 0.966 -0.092 1.436 c 0.039 0.882 0.082 1.881 -0.895 3.789 c -0.767 1.499 -0.85 2.581 -0.929 3.627 c -0.046 0.6 -0.09 1.181 -0.268 1.818 l -0.474 -12.596 c 0 -0.285 -0.142 -0.591 -0.453 -0.591 c -0.11 0 -0.209 0.04 -0.285 0.117 c -0.164 0.164 -0.168 0.443 -0.168 0.467 l -0.461 12.24 c -0.148 -0.535 -0.333 -1.039 -0.517 -1.534 c -0.419 -1.128 -0.816 -2.194 -0.697 -3.51 c 0.183 -2.031 -0.581 -3.413 -1.138 -4.422 c -0.198 -0.36 -0.37 -0.67 -0.458 -0.938 c -0.183 -0.557 -0.039 -0.977 0.065 -1.285 c 0.079 -0.232 0.177 -0.521 -0.094 -0.652 c -0.079 -0.039 -0.243 -0.08 -0.453 0.074 c -0.394 0.289 -0.739 1.129 -0.568 2.29 c 0.079 0.533 0.266 0.936 0.465 1.362 c 0.373 0.8 0.796 1.706 0.623 3.843 c -0.136 1.679 0.202 2.71 0.529 3.707 c 0.187 0.572 0.369 1.125 0.448 1.782 l -5.259 -11.456 c -0.108 -0.263 -0.357 -0.492 -0.645 -0.373 c -0.177 0.073 -0.269 0.241 -0.253 0.46 c 0.009 0.133 0.055 0.247 0.058 0.253 l 4.258 11.484 c -0.342 -0.437 -0.705 -0.833 -1.064 -1.219 c -0.819 -0.882 -1.593 -1.715 -1.987 -2.976 c -0.609 -1.947 -1.843 -2.931 -2.744 -3.65 c -0.321 -0.256 -0.599 -0.478 -0.782 -0.691 c -0.382 -0.444 -0.41 -0.888 -0.431 -1.212 c -0.016 -0.245 -0.035 -0.549 -0.336 -0.566 c -0.085 -0.006 -0.255 0.019 -0.39 0.242 c -0.253 0.417 -0.251 1.326 0.352 2.333 c 0.277 0.463 0.604 0.763 0.951 1.081 c 0.651 0.596 1.388 1.272 2.047 3.312 c 0.517 1.603 1.224 2.426 1.907 3.222 c 0.392 0.456 0.771 0.898 1.096 1.474 l -9.242 -8.572 c -0.202 -0.202 -0.518 -0.318 -0.739 -0.098 c -0.135 0.135 -0.156 0.325 -0.058 0.522 c 0.06 0.12 0.145 0.207 0.15 0.212 l 8.33 8.981 c -0.483 -0.274 -0.971 -0.5 -1.451 -0.72 c -1.094 -0.501 -2.128 -0.974 -2.975 -1.989 c -1.307 -1.566 -2.824 -2.003 -3.932 -2.322 c -0.395 -0.114 -0.736 -0.212 -0.987 -0.339 c -0.523 -0.265 -0.719 -0.663 -0.862 -0.955 c -0.108 -0.22 -0.244 -0.493 -0.527 -0.395 c -0.083 0.029 -0.228 0.116 -0.267 0.373 c -0.074 0.483 0.276 1.321 1.218 2.021 c 0.433 0.321 0.85 0.473 1.292 0.634 c 0.829 0.302 1.769 0.644 3.158 2.277 c 1.091 1.283 2.059 1.773 2.995 2.246 c 0.537 0.272 1.056 0.535 1.577 0.943 l -11.819 -4.382 c -0.263 -0.109 -0.6 -0.095 -0.72 0.192 c -0.042 0.102 -0.043 0.208 -0.001 0.308 c 0.088 0.214 0.345 0.325 0.368 0.334 l 11.132 5.11 c -0.551 -0.068 -1.088 -0.09 -1.615 -0.11 c -1.203 -0.044 -2.339 -0.086 -3.509 -0.699 c -1.808 -0.947 -3.377 -0.77 -4.522 -0.641 c -0.407 0.046 -0.759 0.085 -1.041 0.064 c -0.584 -0.045 -0.918 -0.338 -1.162 -0.552 c -0.184 -0.162 -0.413 -0.362 -0.638 -0.163 c -0.066 0.059 -0.166 0.194 -0.104 0.447 c 0.116 0.474 0.76 1.115 1.899 1.401 c 0.523 0.131 0.966 0.112 1.436 0.092 c 0.88 -0.039 1.881 -0.082 3.789 0.895 c 1.499 0.768 2.581 0.85 3.627 0.929 c 0.6 0.046 1.181 0.09 1.818 0.268 l -12.597 0.474 c 0 0 0 0 -0.001 0 c -0.284 0 -0.59 0.142 -0.59 0.453 c 0 0.191 0.12 0.34 0.328 0.41 c 0.128 0.043 0.247 0.041 0.256 0.043 l 12.24 0.461 c -0.535 0.149 -1.039 0.333 -1.534 0.517 c -1.127 0.419 -2.191 0.818 -3.51 0.697 c -2.032 -0.183 -3.414 0.581 -4.423 1.138 c -0.36 0.199 -0.67 0.37 -0.938 0.458 c -0.557 0.183 -0.977 0.039 -1.285 -0.065 c -0.232 -0.079 -0.521 -0.177 -0.652 0.094 c -0.038 0.079 -0.08 0.243 0.074 0.453 c 0.289 0.393 1.129 0.739 2.29 0.568 c 0.534 -0.079 0.936 -0.266 1.362 -0.465 c 0.799 -0.373 1.705 -0.796 3.843 -0.623 c 1.68 0.135 2.709 -0.203 3.706 -0.529 c 0.572 -0.187 1.125 -0.369 1.782 -0.448 l -11.456 5.259 c -0.013 0.005 -0.125 0.053 -0.226 0.14 c -0.166 0.144 -0.22 0.328 -0.147 0.504 c 0.042 0.102 0.117 0.178 0.217 0.219 c 0.063 0.026 0.131 0.036 0.195 0.036 c 0.152 0 0.285 -0.053 0.301 -0.059 l 11.486 -4.259 c -0.438 0.342 -0.833 0.705 -1.22 1.065 c -0.882 0.819 -1.714 1.593 -2.976 1.987 c -1.947 0.609 -2.931 1.843 -3.65 2.744 c -0.256 0.321 -0.477 0.598 -0.691 0.782 c -0.444 0.382 -0.888 0.41 -1.212 0.431 c -0.245 0.016 -0.549 0.035 -0.566 0.336 c -0.005 0.088 0.019 0.255 0.242 0.39 c 0.418 0.253 1.326 0.25 2.333 -0.352 c 0.463 -0.277 0.763 -0.604 1.08 -0.951 c 0.596 -0.651 1.272 -1.388 3.312 -2.047 c 1.603 -0.517 2.426 -1.224 3.222 -1.907 c 0.456 -0.392 0.898 -0.771 1.475 -1.096 l -8.572 9.242 c -0.201 0.201 -0.318 0.518 -0.098 0.739 c 0.078 0.078 0.176 0.119 0.284 0.119 c 0.231 0 0.432 -0.194 0.449 -0.212 l 8.981 -8.33 c -0.273 0.483 -0.5 0.97 -0.72 1.451 c -0.501 1.094 -0.974 2.128 -1.988 2.975 c -1.565 1.307 -2.003 2.824 -2.322 3.931 c -0.114 0.395 -0.212 0.736 -0.34 0.987 c -0.265 0.523 -0.663 0.719 -0.955 0.862 c -0.22 0.108 -0.493 0.243 -0.395 0.527 c 0.029 0.083 0.116 0.228 0.373 0.268 c 0.482 0.076 1.321 -0.275 2.021 -1.218 c 0.321 -0.433 0.473 -0.85 0.634 -1.292 c 0.302 -0.829 0.644 -1.769 2.277 -3.158 c 1.283 -1.091 1.773 -2.059 2.247 -2.995 c 0.272 -0.537 0.535 -1.056 0.943 -1.577 l -4.382 11.819 c -0.109 0.263 -0.095 0.6 0.192 0.719 c 0.051 0.021 0.104 0.032 0.157 0.032 c 0.051 0 0.102 -0.01 0.152 -0.031 c 0.214 -0.089 0.325 -0.345 0.334 -0.368 l 5.11 -11.132 c -0.068 0.551 -0.09 1.088 -0.11 1.615 c -0.044 1.203 -0.086 2.339 -0.699 3.51 c -0.946 1.807 -0.77 3.376 -0.641 4.521 c 0.046 0.408 0.086 0.761 0.064 1.042 c -0.044 0.584 -0.338 0.918 -0.552 1.162 c -0.162 0.184 -0.363 0.413 -0.163 0.638 c 0.058 0.066 0.194 0.167 0.447 0.105 c 0.474 -0.116 1.115 -0.76 1.401 -1.899 c 0.132 -0.523 0.112 -0.966 0.092 -1.436 c -0.039 -0.882 -0.082 -1.881 0.895 -3.789 c 0.767 -1.499 0.85 -2.581 0.929 -3.627 c 0.046 -0.6 0.09 -1.181 0.268 -1.818 l 0.474 12.596 c 0 0.285 0.142 0.591 0.453 0.591 c 0.11 0 0.209 -0.04 0.285 -0.117 c 0.164 -0.164 0.168 -0.443 0.168 -0.467 l 0.461 -12.24 c 0.148 0.535 0.333 1.039 0.517 1.534 c 0.419 1.128 0.816 2.194 0.697 3.51 c -0.183 2.031 0.581 3.413 1.138 4.422 c 0.198 0.36 0.37 0.67 0.458 0.938 c 0.183 0.557 0.039 0.977 -0.065 1.285 c -0.079 0.232 -0.177 0.521 0.094 0.652 c 0.036 0.018 0.089 0.036 0.157 0.036 c 0.081 0 0.181 -0.026 0.296 -0.11 c 0.394 -0.289 0.739 -1.129 0.568 -2.29 c -0.079 -0.533 -0.266 -0.936 -0.465 -1.362 c -0.373 -0.8 -0.796 -1.706 -0.623 -3.843 c 0.136 -1.679 -0.202 -2.71 -0.529 -3.707 c -0.187 -0.572 -0.369 -1.125 -0.448 -1.782 l 5.259 11.456 c 0.108 0.263 0.357 0.492 0.645 0.373 c 0.177 -0.073 0.269 -0.241 0.253 -0.46 c -0.009 -0.133 -0.055 -0.247 -0.058 -0.253 L 49.547 53.59 c 0.342 0.437 0.705 0.833 1.064 1.219 c 0.819 0.882 1.593 1.715 1.987 2.976 c 0.609 1.947 1.843 2.931 2.744 3.65 c 0.321 0.256 0.599 0.478 0.782 0.691 c 0.382 0.444 0.41 0.888 0.431 1.212 c 0.016 0.245 0.035 0.549 0.336 0.566 c 0.006 0 0.013 0.001 0.02 0.001 c 0.091 0 0.245 -0.036 0.37 -0.242 c 0.253 -0.417 0.251 -1.326 -0.352 -2.333 c -0.277 -0.463 -0.604 -0.763 -0.951 -1.081 c -0.651 -0.596 -1.388 -1.272 -2.047 -3.312 c -0.517 -1.603 -1.224 -2.426 -1.907 -3.222 c -0.392 -0.456 -0.771 -0.898 -1.096 -1.474 l 9.242 8.572 c 0.202 0.202 0.518 0.318 0.739 0.098 c 0.135 -0.135 0.156 -0.325 0.058 -0.522 c -0.06 -0.12 -0.145 -0.207 -0.15 -0.212 l -8.33 -8.981 c 0.483 0.274 0.971 0.5 1.451 0.72 c 1.094 0.501 2.128 0.974 2.975 1.989 c 1.307 1.566 2.824 2.003 3.932 2.322 c 0.395 0.114 0.736 0.212 0.987 0.339 c 0.523 0.265 0.719 0.663 0.862 0.955 c 0.092 0.188 0.204 0.416 0.413 0.416 c 0.035 0 0.073 -0.007 0.115 -0.021 c 0.083 -0.029 0.228 -0.116 0.267 -0.373 c 0.074 -0.483 -0.276 -1.321 -1.218 -2.021 c -0.433 -0.321 -0.85 -0.473 -1.292 -0.634 c -0.829 -0.302 -1.769 -0.644 -3.158 -2.277 c -1.091 -1.283 -2.059 -1.773 -2.995 -2.246 c -0.537 -0.272 -1.056 -0.535 -1.577 -0.943 l 11.819 4.382 c 0.263 0.109 0.6 0.096 0.72 -0.192 c 0.042 -0.102 0.043 -0.208 0.001 -0.308 c -0.088 -0.214 -0.345 -0.325 -0.368 -0.334 l -11.132 -5.11 c 0.551 0.068 1.088 0.09 1.615 0.11 c 1.203 0.044 2.339 0.086 3.509 0.699 c 1.807 0.946 3.376 0.77 4.522 0.641 c 0.408 -0.046 0.76 -0.085 1.041 -0.064 c 0.584 0.045 0.918 0.338 1.162 0.552 c 0.129 0.113 0.28 0.247 0.437 0.246 c 0.067 0 0.134 -0.024 0.202 -0.084 c 0.066 -0.059 0.166 -0.194 0.104 -0.447 c -0.116 -0.474 -0.76 -1.115 -1.899 -1.401 c -0.523 -0.132 -0.966 -0.112 -1.436 -0.092 c -0.881 0.039 -1.881 0.082 -3.789 -0.895 c -1.499 -0.768 -2.581 -0.85 -3.627 -0.929 c -0.6 -0.046 -1.181 -0.09 -1.818 -0.268 l 12.597 -0.474 c 0 0 0 0 0.001 0 c 0.284 0 0.59 -0.142 0.59 -0.453 C 67.5 44.81 67.38 44.66 67.172 44.591 z M 45 45 L 45 45 L 45 45 L 45 45 L 45 45 L 45 45 L 45 45 L 45 45 L 45 45 L 45 45 L 45 45 L 45 45 L 45 45 L 45 45 L 45 45 L 45 45 L 45 45 z" style="stroke: none; stroke-width: 1; stroke-dasharray: none; stroke-linecap: butt; stroke-linejoin: miter; stroke-miterlimit: 10; fill: rgb(246,180,14); fill-rule: nonzero; opacity: 1;" transform=" matrix(1 0 0 1 0 0) " stroke-linecap="round" />
	<path d="M 48.044 43.091 c -0.61 0 -1.193 0.264 -1.537 0.814 c 0.687 0.618 2.204 0.685 3.234 -0.07 C 49.295 43.353 48.653 43.091 48.044 43.091 L 48.044 43.091 z M 48.034 43.231 c 0.593 -0.011 1.148 0.262 1.225 0.532 c -0.687 0.755 -1.784 0.69 -2.471 0.141 C 47.089 43.424 47.572 43.24 48.034 43.231 L 48.034 43.231 z" style="stroke: none; stroke-width: 1; stroke-dasharray: none; stroke-linecap: butt; stroke-linejoin: miter; stroke-miterlimit: 10; fill: rgb(209,148,13); fill-rule: nonzero; opacity: 1;" transform=" matrix(1 0 0 1 0 0) " stroke-linecap="round" />
	<path d="M 48.16 42.666 c -0.892 0 -1.099 0.206 -1.511 0.55 c -0.412 0.343 -0.618 0.275 -0.687 0.343 c -0.068 0.069 0 0.275 0.137 0.206 s 0.412 -0.206 0.824 -0.549 c 0.412 -0.344 0.824 -0.343 1.236 -0.343 c 1.236 0 1.923 1.03 2.06 0.961 C 50.356 43.765 49.532 42.666 48.16 42.666 L 48.16 42.666 z" style="stroke: none; stroke-width: 1; stroke-dasharray: none; stroke-linecap: butt; stroke-linejoin: miter; stroke-miterlimit: 10; fill: rgb(209,148,13); fill-rule: nonzero; opacity: 1;" transform=" matrix(1 0 0 1 0 0) " stroke-linecap="round" />
	<path d="M 50.631 43.078 c -1.58 -1.373 -3.571 -1.58 -4.67 -0.549 c -0.269 0.36 -0.441 0.745 -0.512 1.147 c -0.138 0.782 0.106 1.627 0.719 2.493 c -0.069 0 -0.207 0.068 -0.275 0.137 c -0.545 -1.043 -0.738 -2.114 -0.559 -3.132 c 0.047 -0.266 0.12 -0.528 0.215 -0.783 C 47.059 41.155 49.119 41.017 50.631 43.078 L 50.631 43.078 z" style="stroke: none; stroke-width: 1; stroke-dasharray: none; stroke-linecap: butt; stroke-linejoin: miter; stroke-miterlimit: 10; fill: rgb(209,148,13); fill-rule: nonzero; opacity: 1;" transform=" matrix(1 0 0 1 0 0) " stroke-linecap="round" />
	<circle cx="48.018" cy="43.758" r="0.618" style="stroke: none; stroke-width: 1; stroke-dasharray: none; stroke-linecap: butt; stroke-linejoin: miter; stroke-miterlimit: 10; fill: rgb(209,148,13); fill-rule: nonzero; opacity: 1;" transform="  matrix(1 0 0 1 0 0) "/>
	<path d="M 49.808 44.177 c -1.168 0.893 -2.335 0.824 -3.022 0.412 c -0.687 -0.412 -0.687 -0.549 -0.55 -0.549 c 0.137 0 0.274 0.137 0.824 0.412 C 47.61 44.727 48.434 44.727 49.808 44.177 L 49.808 44.177 z" style="stroke: none; stroke-width: 1; stroke-dasharray: none; stroke-linecap: butt; stroke-linejoin: miter; stroke-miterlimit: 10; fill: rgb(209,148,13); fill-rule: nonzero; opacity: 1;" transform=" matrix(1 0 0 1 0 0) " stroke-linecap="round" />
	<path d="M 43.634 46.234 c -0.294 0.054 -0.502 0.314 -0.502 0.613 c 0 0.341 0.282 0.613 0.623 0.613 c 0.201 0 0.387 -0.095 0.502 -0.261 c 0.238 0.179 0.567 0.198 0.743 0.201 c 0.027 0.001 0.062 0 0.08 0 c 0.176 -0.003 0.506 -0.022 0.743 -0.201 c 0.116 0.166 0.301 0.261 0.502 0.261 c 0.341 0 0.623 -0.272 0.623 -0.613 c 0 -0.299 -0.209 -0.559 -0.502 -0.613 c 0.165 0.058 0.271 0.217 0.271 0.392 c 0 0.227 -0.184 0.412 -0.412 0.412 c -0.219 0 -0.399 -0.174 -0.412 -0.392 c -0.067 0.134 -0.332 0.532 -0.854 0.552 c -0.521 -0.02 -0.787 -0.419 -0.854 -0.552 c -0.013 0.218 -0.193 0.392 -0.412 0.392 c -0.228 0 -0.412 -0.184 -0.412 -0.412 C 43.363 46.452 43.469 46.292 43.634 46.234 L 43.634 46.234 z" style="stroke: none; stroke-width: 1; stroke-dasharray: none; stroke-linecap: butt; stroke-linejoin: miter; stroke-miterlimit: 10; fill: rgb(209,148,13); fill-rule: nonzero; opacity: 1;" transform=" matrix(1 0 0 1 0 0) " stroke-linecap="round" />
	<path d="M 44.306 48.063 c -0.687 0 -0.959 0.623 -1.577 1.035 c 0.344 -0.137 0.614 -0.408 1.095 -0.683 c 0.481 -0.275 0.891 0.06 1.165 0.06 h 0.01 c 0.274 0 0.684 -0.335 1.165 -0.06 c 0.481 0.275 0.761 0.546 1.105 0.683 c -0.618 -0.412 -0.9 -1.035 -1.587 -1.035 c -0.137 0 -0.409 0.074 -0.683 0.211 h -0.01 C 44.714 48.137 44.443 48.063 44.306 48.063 z" style="stroke: none; stroke-width: 1; stroke-dasharray: none; stroke-linecap: butt; stroke-linejoin: miter; stroke-miterlimit: 10; fill: rgb(209,148,13); fill-rule: nonzero; opacity: 1;" transform=" matrix(1 0 0 1 0 0) " stroke-linecap="round" />
	<path d="M 44.074 48.876 c -0.271 0.012 -0.63 0.066 -1.145 0.221 c 1.237 -0.275 1.509 0.141 2.059 0.141 h 0.01 c 0.55 0 0.822 -0.415 2.059 -0.141 c -1.374 -0.412 -1.647 -0.141 -2.059 -0.141 h -0.01 C 44.731 48.957 44.526 48.856 44.074 48.876 L 44.074 48.876 z" style="stroke: none; stroke-width: 1; stroke-dasharray: none; stroke-linecap: butt; stroke-linejoin: miter; stroke-miterlimit: 10; fill: rgb(209,148,13); fill-rule: nonzero; opacity: 1;" transform=" matrix(1 0 0 1 0 0) " stroke-linecap="round" />
	<path d="M 42.991 49.088 c -0.08 0.001 -0.167 0.002 -0.261 0.01 c 1.443 0.137 0.749 0.964 2.26 0.964 H 45 c 1.511 0 0.827 -0.827 2.27 -0.964 c -1.511 -0.137 -1.033 0.753 -2.27 0.753 h -0.01 C 43.83 49.852 44.188 49.074 42.991 49.088 L 42.991 49.088 z" style="stroke: none; stroke-width: 1; stroke-dasharray: none; stroke-linecap: butt; stroke-linejoin: miter; stroke-miterlimit: 10; fill: rgb(209,148,13); fill-rule: nonzero; opacity: 1;" transform=" matrix(1 0 0 1 0 0) " stroke-linecap="round" />
	<path d="M 46.237 51.319 c 0 -0.683 -0.554 -1.236 -1.236 -1.236 c -0.682 0 -1.236 0.554 -1.236 1.236 c 0.136 -0.572 0.648 -0.977 1.236 -0.977 C 45.59 50.342 46.102 50.747 46.237 51.319 L 46.237 51.319 L 46.237 51.319 z" style="stroke: none; stroke-width: 1; stroke-dasharray: none; stroke-linecap: butt; stroke-linejoin: miter; stroke-miterlimit: 10; fill: rgb(209,148,13); fill-rule: nonzero; opacity: 1;" transform=" matrix(1 0 0 1 0 0) " stroke-linecap="round" />
	<path d="M 39.449 43.078 c 1.58 -1.373 3.571 -1.58 4.67 -0.549 c 0.269 0.36 0.441 0.745 0.512 1.147 c 0.138 0.782 -0.106 1.627 -0.719 2.493 c 0.069 0 0.207 0.068 0.275 0.137 c 0.545 -1.043 0.738 -2.114 0.559 -3.132 c -0.047 -0.266 -0.12 -0.528 -0.215 -0.783 C 43.021 41.155 40.961 41.017 39.449 43.078 L 39.449 43.078 z" style="stroke: none; stroke-width: 1; stroke-dasharray: none; stroke-linecap: butt; stroke-linejoin: miter; stroke-miterlimit: 10; fill: rgb(209,148,13); fill-rule: nonzero; opacity: 1;" transform=" matrix(1 0 0 1 0 0) " stroke-linecap="round" />
	<path d="M 41.921 42.666 c 0.892 0 1.099 0.206 1.511 0.55 c 0.412 0.343 0.618 0.275 0.687 0.343 c 0.068 0.069 0 0.275 -0.137 0.206 s -0.412 -0.206 -0.824 -0.549 c -0.412 -0.344 -0.824 -0.343 -1.236 -0.343 c -1.236 0 -1.923 1.03 -2.06 0.961 C 39.724 43.765 40.548 42.666 41.921 42.666 L 41.921 42.666 z" style="stroke: none; stroke-width: 1; stroke-dasharray: none; stroke-linecap: butt; stroke-linejoin: miter; stroke-miterlimit: 10; fill: rgb(209,148,13); fill-rule: nonzero; opacity: 1;" transform=" matrix(1 0 0 1 0 0) " stroke-linecap="round" />
	<path d="M 41.879 43.091 c -0.61 0 -1.193 0.264 -1.537 0.814 c 0.687 0.618 2.204 0.685 3.234 -0.07 C 43.13 43.353 42.488 43.091 41.879 43.091 L 41.879 43.091 z M 41.869 43.231 c 0.593 -0.011 1.148 0.262 1.225 0.532 c -0.687 0.755 -1.784 0.69 -2.471 0.141 C 40.924 43.424 41.407 43.24 41.869 43.231 L 41.869 43.231 z" style="stroke: none; stroke-width: 1; stroke-dasharray: none; stroke-linecap: butt; stroke-linejoin: miter; stroke-miterlimit: 10; fill: rgb(209,148,13); fill-rule: nonzero; opacity: 1;" transform=" matrix(1 0 0 1 0 0) " stroke-linecap="round" />
	<circle cx="41.958000000000006" cy="43.758" r="0.618" style="stroke: none; stroke-width: 1; stroke-dasharray: none; stroke-linecap: butt; stroke-linejoin: miter; stroke-miterlimit: 10; fill: rgb(209,148,13); fill-rule: nonzero; opacity: 1;" transform="  matrix(1 0 0 1 0 0) "/>
	<path d="M 40.272 44.177 c 1.168 0.893 2.335 0.824 3.022 0.412 c 0.687 -0.412 0.687 -0.549 0.55 -0.549 c -0.137 0 -0.274 0.137 -0.824 0.412 C 42.47 44.727 41.646 44.727 40.272 44.177 L 40.272 44.177 z" style="stroke: none; stroke-width: 1; stroke-dasharray: none; stroke-linecap: butt; stroke-linejoin: miter; stroke-miterlimit: 10; fill: rgb(209,148,13); fill-rule: nonzero; opacity: 1;" transform=" matrix(1 0 0 1 0 0) " stroke-linecap="round" />
	<path d="M 45 54.169 c -5.056 0 -9.17 -4.113 -9.17 -9.169 s 4.113 -9.169 9.17 -9.169 s 9.17 4.113 9.17 9.169 S 50.056 54.169 45 54.169 z M 45 36.313 c -4.79 0 -8.687 3.897 -8.687 8.687 S 40.21 53.687 45 53.687 S 53.687 49.79 53.687 45 S 49.79 36.313 45 36.313 z" style="stroke: none; stroke-width: 1; stroke-dasharray: none; stroke-linecap: butt; stroke-linejoin: miter; stroke-miterlimit: 10; fill: rgb(209,148,13); fill-rule: nonzero; opacity: 1;" transform=" matrix(1 0 0 1 0 0) " stroke-linecap="round" />
</g>
</svg>